<svg width="189" height="46" viewBox="0 0 189 46" fill="none" xmlns="http://www.w3.org/2000/svg">
<g clip-path="url(#clip0_9527_487)">
<path fill-rule="evenodd" clip-rule="evenodd" d="M2.12414 19.3457C2.12414 9.54404 5.69893 5.84995 14.3984 4.19716C22.3651 2.68427 30.2452 2.19809 39.9297 2.19915C42.2434 2.19915 44.3111 2.23557 46.5493 2.02442L94.3022 2.60772C103.506 2.60772 112.709 2.60772 121.913 2.60772C131.436 2.6072 151.494 3.52254 160.995 5.05549C165.136 5.72379 168.706 6.42217 172.418 7.54972C191.098 13.2207 190.283 29.5474 172.713 36.3238C165.532 39.0931 144.466 41.7298 135.071 41.7884L92.9661 43.3726C88.5921 43.8445 82.6202 43.1139 79.0238 43.0104C58.5992 42.424 20.4309 41.6633 5.87049 30.0336C3.25591 27.9453 2.12361 23.8627 2.12361 19.3462L2.12414 19.3457ZM0.000488281 18.529C0.000488281 22.1513 0.742685 26.6647 2.35694 28.9203C7.33482 35.8751 21.2967 39.3169 29.4149 40.8826C59.495 46.6834 109.856 45.7042 141.426 43.4053C156.187 42.3305 182.624 40.5046 187.302 25.8491C191.064 14.0569 179.962 6.9094 168.814 4.48222C163.79 3.38846 155.047 1.85603 149.953 1.78846L139.872 1.27114C134.335 0.542138 86.6321 0.533165 76.8859 0.568005C72.9263 0.581729 70.4294 0.15626 66.2676 0.158371C53.8863 0.165762 11.1609 -1.61424 4.16703 6.61221C1.53767 9.70504 0.00101616 14.4507 0.00101616 18.5296L0.000488281 18.529Z" fill="#0B748C"/>
<path d="M66.032 29.224H71.888V31H63.848V14.272H66.032V29.224ZM79.9434 31.216C78.7114 31.216 77.5914 30.936 76.5834 30.376C75.5914 29.816 74.8074 29.024 74.2314 28C73.6714 26.96 73.3914 25.76 73.3914 24.4C73.3914 23.056 73.6794 21.872 74.2554 20.848C74.8474 19.808 75.6474 19.016 76.6554 18.472C77.6634 17.912 78.7914 17.632 80.0394 17.632C81.2874 17.632 82.4154 17.912 83.4234 18.472C84.4314 19.016 85.2234 19.8 85.7994 20.824C86.3914 21.848 86.6874 23.04 86.6874 24.4C86.6874 25.76 86.3834 26.96 85.7754 28C85.1834 29.024 84.3754 29.816 83.3514 30.376C82.3274 30.936 81.1914 31.216 79.9434 31.216ZM79.9434 29.296C80.7274 29.296 81.4634 29.112 82.1514 28.744C82.8394 28.376 83.3914 27.824 83.8074 27.088C84.2394 26.352 84.4554 25.456 84.4554 24.4C84.4554 23.344 84.2474 22.448 83.8314 21.712C83.4154 20.976 82.8714 20.432 82.1994 20.08C81.5274 19.712 80.7994 19.528 80.0154 19.528C79.2154 19.528 78.4794 19.712 77.8074 20.08C77.1514 20.432 76.6234 20.976 76.2234 21.712C75.8234 22.448 75.6234 23.344 75.6234 24.4C75.6234 25.472 75.8154 26.376 76.1994 27.112C76.5994 27.848 77.1274 28.4 77.7834 28.768C78.4394 29.12 79.1594 29.296 79.9434 29.296ZM94.9829 17.632C96.1189 17.632 97.1109 17.88 97.9589 18.376C98.8229 18.872 99.4629 19.496 99.8789 20.248V17.848H102.087V31.288C102.087 32.488 101.831 33.552 101.319 34.48C100.807 35.424 100.071 36.16 99.1109 36.688C98.1669 37.216 97.0629 37.48 95.7989 37.48C94.0709 37.48 92.6309 37.072 91.4789 36.256C90.3269 35.44 89.6469 34.328 89.4389 32.92H91.5989C91.8389 33.72 92.3349 34.36 93.0869 34.84C93.8389 35.336 94.7429 35.584 95.7989 35.584C96.9989 35.584 97.9749 35.208 98.7269 34.456C99.4949 33.704 99.8789 32.648 99.8789 31.288V28.528C99.4469 29.296 98.8069 29.936 97.9589 30.448C97.1109 30.96 96.1189 31.216 94.9829 31.216C93.8149 31.216 92.7509 30.928 91.7909 30.352C90.8469 29.776 90.1029 28.968 89.5589 27.928C89.0149 26.888 88.7429 25.704 88.7429 24.376C88.7429 23.032 89.0149 21.856 89.5589 20.848C90.1029 19.824 90.8469 19.032 91.7909 18.472C92.7509 17.912 93.8149 17.632 94.9829 17.632ZM99.8789 24.4C99.8789 23.408 99.6789 22.544 99.2789 21.808C98.8789 21.072 98.3349 20.512 97.6469 20.128C96.9749 19.728 96.2309 19.528 95.4149 19.528C94.5989 19.528 93.8549 19.72 93.1829 20.104C92.5109 20.488 91.9749 21.048 91.5749 21.784C91.1749 22.52 90.9749 23.384 90.9749 24.376C90.9749 25.384 91.1749 26.264 91.5749 27.016C91.9749 27.752 92.5109 28.32 93.1829 28.72C93.8549 29.104 94.5989 29.296 95.4149 29.296C96.2309 29.296 96.9749 29.104 97.6469 28.72C98.3349 28.32 98.8789 27.752 99.2789 27.016C99.6789 26.264 99.8789 25.392 99.8789 24.4ZM106.906 15.712C106.49 15.712 106.138 15.568 105.85 15.28C105.562 14.992 105.418 14.64 105.418 14.224C105.418 13.808 105.562 13.456 105.85 13.168C106.138 12.88 106.49 12.736 106.906 12.736C107.306 12.736 107.642 12.88 107.914 13.168C108.202 13.456 108.346 13.808 108.346 14.224C108.346 14.64 108.202 14.992 107.914 15.28C107.642 15.568 107.306 15.712 106.906 15.712ZM107.962 17.848V31H105.778V17.848H107.962ZM118.092 17.608C119.692 17.608 120.988 18.096 121.98 19.072C122.972 20.032 123.468 21.424 123.468 23.248V31H121.308V23.56C121.308 22.248 120.98 21.248 120.324 20.56C119.668 19.856 118.772 19.504 117.636 19.504C116.484 19.504 115.564 19.864 114.876 20.584C114.204 21.304 113.868 22.352 113.868 23.728V31H111.684V17.848H113.868V19.72C114.3 19.048 114.884 18.528 115.62 18.16C116.372 17.792 117.196 17.608 118.092 17.608Z" fill="#0B748C"/>
</g>
<defs>
<clipPath id="clip0_9527_487">
<rect width="188.049" height="45.2096" fill="white"/>
</clipPath>
</defs>
</svg>
