<svg width="40" height="22" viewBox="0 0 40 22" fill="none" xmlns="http://www.w3.org/2000/svg">
<path fill-rule="evenodd" clip-rule="evenodd" d="M0 1.5C0 0.671573 0.671573 0 1.5 0H38.5C39.3284 0 40 0.671573 40 1.5C40 2.32843 39.3284 3 38.5 3H1.5C0.671573 3 0 2.32843 0 1.5ZM0 10.5C0 9.67157 0.671573 9 1.5 9H38.5C39.3284 9 40 9.67157 40 10.5C40 11.3284 39.3284 12 38.5 12H1.5C0.671573 12 0 11.3284 0 10.5ZM1.5 19C0.671573 19 0 19.6716 0 20.5C0 21.3284 0.671573 22 1.5 22H38.5C39.3284 22 40 21.3284 40 20.5C40 19.6716 39.3284 19 38.5 19H1.5Z" fill="#0B748C"/>
</svg>
